<?xml version="1.0" standalone="no"?>
<!DOCTYPE svg PUBLIC "-//W3C//DTD SVG 20010904//EN"
 "http://www.w3.org/TR/2001/REC-SVG-20010904/DTD/svg10.dtd">
<svg version="1.0" xmlns="http://www.w3.org/2000/svg"
 width="512.000000pt" height="512.000000pt" viewBox="0 0 512.000000 512.000000"
 preserveAspectRatio="xMidYMid meet">

<g transform="translate(0.000000,512.000000) scale(0.100000,-0.100000)"
fill="#000000" stroke="none">
<path d="M492 4415 c-81 -19 -210 -88 -274 -145 -77 -68 -151 -182 -185 -283
l-28 -82 0 -1345 0 -1345 28 -82 c34 -101 108 -215 185 -283 65 -58 209 -133
290 -149 75 -15 4029 -15 4104 0 81 16 225 91 290 149 77 68 151 182 185 283
l28 82 0 1345 0 1345 -28 82 c-34 101 -108 215 -185 283 -65 58 -209 133 -290
149 -83 17 -4049 14 -4120 -4z m3867 -408 c-9 -7 -415 -320 -903 -697 -487
-377 -891 -685 -896 -685 -5 0 -409 308 -896 685 -488 377 -894 690 -903 697
-13 10 370 12 1799 12 1429 0 1812 -2 1799 -12z m-2926 -1045 c545 -421 1009
-776 1031 -789 52 -29 131 -31 184 -4 20 10 489 368 1042 795 l1005 777 3
-1223 c2 -805 -1 -1235 -7 -1258 -14 -48 -64 -106 -114 -133 l-42 -22 -1954
-3 c-1289 -1 -1966 1 -1991 8 -53 14 -99 48 -135 99 l-30 43 -3 1245 c-2 943
1 1243 9 1237 7 -4 458 -351 1002 -772z"/>
</g>
</svg>
